<?xml version="1.0" encoding="utf-8"?><svg xml:space="preserve" viewBox="0 0 100 100" y="0" x="0" xmlns="http://www.w3.org/2000/svg" id="圖層_1" version="1.1" width="128px" height="128px" xmlns:xlink="http://www.w3.org/1999/xlink" style="width:100%;height:100%;background-size:initial;background-repeat-y:initial;background-repeat-x:initial;background-position-y:initial;background-position-x:initial;background-origin:initial;background-color:initial;background-clip:initial;background-attachment:initial;animation-play-state:paused" ><g class="ldl-scale" style="transform-origin:50% 50%;transform:rotate(0deg) scale(0.8, 0.8);animation-play-state:paused" ><path fill="#d1d1d1" d="M84.383 25.077L73.594 18.93c-1.314-.748-2.985-1.16-4.706-1.16-1.721 0-3.392.412-4.706 1.161l-10.789 6.147c-2.749 1.566-4.744 4.998-4.744 8.161v9.271c0 .953.006 2.24.006 2.24l-5.214-.023.006-2.863V22.947a6.805 6.805 0 0 0-6.797-6.797h-9.32v-2.759A5.899 5.899 0 0 0 21.432 7.5a5.897 5.897 0 0 0-5.891 5.891v3.1a6.81 6.81 0 0 0-4.668 6.456v56.838a6.805 6.805 0 0 0 6.797 6.797h16.004c.905 0 1.77-.335 2.441-.925.042 3.781 3.127 6.843 6.917 6.843h12.136a6.929 6.929 0 0 0 6.921-6.921v-.824l-.019-6.892 2.907-.045h17.139c3.865 0 7.01-3.144 7.01-7.009V33.238c0-3.163-1.994-6.595-4.743-8.161z" style="fill:rgb(209, 209, 209);animation-play-state:paused" ></path>
<g style="animation-play-state:paused" ><path fill="#464646" d="M55.168 48.687H43.032a3.228 3.228 0 0 0-3.219 3.219v20.079c.123-.023.25-.036.381-.036h4.873a2.08 2.08 0 0 1 2.074 2.074v2.626a2.08 2.08 0 0 1-2.074 2.074h-4.873a2 2 0 0 1-.381-.037v6.893a3.228 3.228 0 0 0 3.219 3.218h12.136a3.227 3.227 0 0 0 3.218-3.218v-.824h-4.673v.001a2.08 2.08 0 0 1-2.074-2.074v-2.627a2.08 2.08 0 0 1 2.074-2.074h4.673V51.906a3.227 3.227 0 0 0-3.218-3.219zM44.705 59.222a2.08 2.08 0 0 1-2.074-2.074v-2.627a2.08 2.08 0 0 1 2.074-2.074h4.873a2.08 2.08 0 0 1 2.074 2.074v2.627a2.08 2.08 0 0 1-2.074 2.074h-4.873zm11.817 8.325a2.08 2.08 0 0 1-2.074 2.074h-4.873a2.08 2.08 0 0 1-2.074-2.074v-2.626a2.08 2.08 0 0 1 2.074-2.074h4.873a2.08 2.08 0 0 1 2.074 2.074v2.626z" style="fill:rgb(70, 70, 70);animation-play-state:paused" ></path>
<path fill="#464646" d="M82.55 28.294l-10.788-6.147c-1.581-.9-4.166-.9-5.747 0l-10.789 6.147c-1.581.9-2.874 3.125-2.874 4.944v9.271h3.074v-3.84a3.104 3.104 0 0 1 3.094-3.095h7.273a3.104 3.104 0 0 1 3.094 3.095v3.92a3.104 3.104 0 0 1-3.094 3.095h-1.695c.555.947.879 2.045.879 3.219v25.213h17.14a3.317 3.317 0 0 0 3.307-3.307V33.238c0-1.818-1.293-4.044-2.874-4.944zm-1.281 37.501a3.104 3.104 0 0 1-3.095 3.094h-7.273a3.103 3.103 0 0 1-3.094-3.094v-3.921a3.102 3.102 0 0 1 3.094-3.093h7.273a3.104 3.104 0 0 1 3.095 3.093v3.921zm0-13.782a2.08 2.08 0 0 1-2.074 2.074h-4.874a2.08 2.08 0 0 1-2.074-2.074v-2.626a2.08 2.08 0 0 1 2.074-2.074h4.874a2.08 2.08 0 0 1 2.074 2.074v2.626z" style="fill:rgb(70, 70, 70);animation-play-state:paused" ></path>
<path fill="#464646" d="M36.651 19.852H23.628V13.39a2.194 2.194 0 0 0-2.188-2.188h-.007a2.194 2.194 0 0 0-2.188 2.188v6.461H17.67a3.104 3.104 0 0 0-3.095 3.095v56.838a3.104 3.104 0 0 0 3.095 3.094h16.004a6.338 6.338 0 0 1-.08-.962V61.474H31.44a3.104 3.104 0 0 1-3.095-3.094v-3.92a3.104 3.104 0 0 1 3.095-3.095h2.154v-3.12c0-3.444 2.739-6.253 6.152-6.382V22.947a3.104 3.104 0 0 0-3.095-3.095zM17.714 39.854a2.288 2.288 0 0 1 2.281-2.281h5.361a2.287 2.287 0 0 1 2.281 2.281v2.89a2.287 2.287 0 0 1-2.281 2.281h-5.362a2.288 2.288 0 0 1-2.281-2.281l.001-2.89zm12.645 30.058l-.001 3.92a3.104 3.104 0 0 1-3.095 3.095h-7.272a3.104 3.104 0 0 1-3.095-3.095v-3.92a3.104 3.104 0 0 1 3.095-3.094h7.273a3.104 3.104 0 0 1 3.095 3.094zm6.73-39.074a3.104 3.104 0 0 1-3.095 3.095h-7.272a3.104 3.104 0 0 1-3.095-3.095v-3.92a3.104 3.104 0 0 1 3.095-3.095h7.272a3.104 3.104 0 0 1 3.095 3.095v3.92z" style="fill:rgb(70, 70, 70);animation-play-state:paused" ></path></g>
<metadata xmlns:d="https://loading.io/stock/" style="animation-play-state:paused" ><d:name style="animation-play-state:paused" >city</d:name>
<d:tags style="animation-play-state:paused" >town,village,skyscape,city,map</d:tags>
<d:license style="animation-play-state:paused" >free</d:license>
<d:slug style="animation-play-state:paused" >ey9m78</d:slug></metadata></g><!-- generated by https://loading.io/ --></svg>